<svg width="217" height="64" viewBox="0 0 217 64" fill="none" xmlns="http://www.w3.org/2000/svg">
<path d="M47.688 39.9844C46.168 39.9844 44.8633 39.579 43.774 38.7684C42.71 37.9324 42.1653 36.7164 42.14 35.1204V32.0804H47.688V32.8404C47.764 33.6257 47.9413 34.1577 48.22 34.4364C48.4987 34.715 48.9167 34.8797 49.474 34.9304H65.016C65.5227 34.9304 65.9027 34.8924 66.156 34.8164C66.4093 34.715 66.612 34.4997 66.764 34.1704C66.916 33.8157 66.992 33.2584 66.992 32.4984V31.6244C66.992 30.8644 66.916 30.3197 66.764 29.9904C66.612 29.6357 66.4093 29.4204 66.156 29.3444C65.9027 29.243 65.5227 29.1924 65.016 29.1924L47.612 29.2304C46.6747 29.2304 45.788 29.015 44.952 28.5844C44.1413 28.1537 43.47 27.533 42.938 26.7224C42.4313 25.9117 42.1653 24.9617 42.14 23.8724V18.7424C42.1653 17.653 42.4313 16.703 42.938 15.8924C43.47 15.0817 44.1413 14.461 44.952 14.0304C45.788 13.5997 46.6747 13.3844 47.612 13.3844H66.992C68.4613 13.3844 69.7153 13.7644 70.754 14.5244C71.7927 15.2844 72.312 16.5764 72.312 18.4004V21.2884H66.992V21.0604C66.992 20.2497 66.916 19.6544 66.764 19.2744C66.6373 18.8944 66.4473 18.6664 66.194 18.5904C65.9407 18.489 65.548 18.4384 65.016 18.4384H49.474C48.6887 18.489 48.1947 18.755 47.992 19.2364C47.7893 19.7177 47.688 20.4017 47.688 21.2884C47.688 22.175 47.7767 22.859 47.954 23.3404C48.1567 23.8217 48.6253 24.0877 49.36 24.1384H66.992C68.4613 24.1384 69.7153 24.5184 70.754 25.2784C71.7927 26.0384 72.312 27.3304 72.312 29.1544V34.9684C72.312 36.7924 71.7927 38.0844 70.754 38.8444C69.7153 39.6044 68.4613 39.9844 66.992 39.9844H47.688ZM76.6636 21.2884H82.2116V26.9124H99.0076C99.8943 26.9124 100.49 26.6337 100.794 26.0764C101.123 25.519 101.288 24.8097 101.288 23.9484V21.2504C101.338 19.3757 100.629 18.4384 99.1596 18.4384H76.6636V13.3844H100.794C101.756 13.3844 102.694 13.5997 103.606 14.0304C104.543 14.461 105.303 15.0944 105.886 15.9304C106.494 16.741 106.81 17.6784 106.836 18.7424V25.6204C106.81 26.811 106.519 27.8877 105.962 28.8504C105.404 29.813 104.657 30.573 103.72 31.1304C102.782 31.6877 101.718 31.9664 100.528 31.9664H82.2116V39.9844H76.6636V21.2884ZM116.697 39.9844C115.203 39.9844 113.911 39.579 112.821 38.7684C111.757 37.9324 111.213 36.7164 111.187 35.1204V21.2884H116.735V32.8404C116.811 33.6257 116.989 34.1577 117.267 34.4364C117.546 34.715 117.951 34.8797 118.483 34.9304H134.063C134.57 34.9304 134.95 34.8924 135.203 34.8164C135.457 34.715 135.659 34.4997 135.811 34.1704C135.963 33.8157 136.039 33.2584 136.039 32.4984V21.0604C136.039 20.2497 135.963 19.6544 135.811 19.2744C135.685 18.8944 135.482 18.6664 135.203 18.5904C134.95 18.489 134.57 18.4384 134.063 18.4384H111.187C111.289 16.893 111.871 15.6644 112.935 14.7524C113.999 13.8404 115.241 13.3844 116.659 13.3844H136.001C137.496 13.3844 138.75 13.7644 139.763 14.5244C140.802 15.2844 141.321 16.5764 141.321 18.4004V34.9684C141.321 36.7924 140.802 38.0844 139.763 38.8444C138.75 39.6044 137.496 39.9844 136.001 39.9844H116.697ZM145.674 39.9844V21.2884H151.222V26.9124H168.018C168.904 26.9124 169.5 26.6337 169.804 26.0764C170.133 25.519 170.298 24.8097 170.298 23.9484V21.2504C170.348 19.3757 169.639 18.4384 168.17 18.4384H145.674V13.3844H169.804C170.766 13.3844 171.704 13.5997 172.616 14.0304C173.553 14.461 174.313 15.0944 174.896 15.9304C175.504 16.741 175.82 17.6784 175.846 18.7424V26.1144C175.795 27.761 175.301 29.1544 174.364 30.2944C173.426 31.409 172.172 31.9664 170.602 31.9664L175.846 39.9844H169.5L164.294 31.9664H151.222V39.9844H145.674Z" fill="white"/>
<path d="M88.54 47.5707H91.618L96.838 57.7767L102.058 47.5707H105.154L98.692 60.1707H94.984L88.54 47.5707ZM107.145 47.5707H109.773V57.7767H120.699V60.1707H107.145V47.5707ZM129.136 47.5707H132.862L139.306 60.1707H136.228L135.004 57.7947H128.506L129.73 55.4007H133.78L130.99 49.9647L125.77 60.1707H122.692L129.136 47.5707ZM141.298 51.3147H143.926V57.7767H151.882C152.302 57.7767 152.584 57.6447 152.728 57.3807C152.884 57.1167 152.962 56.7807 152.962 56.3727V51.2967C152.986 50.4087 152.65 49.9647 151.954 49.9647H141.298V47.5707H152.728C153.184 47.5707 153.628 47.6727 154.06 47.8767C154.504 48.0807 154.864 48.3807 155.14 48.7767C155.428 49.1607 155.578 49.6047 155.59 50.1087V57.1647C155.578 57.7287 155.44 58.2387 155.176 58.6947C154.924 59.1507 154.576 59.5107 154.132 59.7747C153.688 60.0387 153.184 60.1707 152.62 60.1707H141.298V51.3147ZM157.741 47.5707H160.387V60.1707H157.741V47.5707ZM181.519 47.5707V60.1707H178.891V50.2167L173.527 60.1707H170.539L165.175 50.2167V60.1707H162.547V47.5707H166.741L172.033 57.3987L177.325 47.5707H181.519ZM183.684 47.5707H186.33V60.1707H183.684V47.5707ZM188.491 60.1707V51.3147H191.119V53.9787H199.075C199.495 53.9787 199.777 53.8467 199.921 53.5827C200.077 53.3187 200.155 52.9827 200.155 52.5747V51.2967C200.179 50.4087 199.843 49.9647 199.147 49.9647H188.491V47.5707H199.921C200.377 47.5707 200.821 47.6727 201.253 47.8767C201.697 48.0807 202.057 48.3807 202.333 48.7767C202.621 49.1607 202.771 49.6047 202.783 50.1087V53.6007C202.759 54.3807 202.525 55.0407 202.081 55.5807C201.637 56.1087 201.043 56.3727 200.299 56.3727L202.783 60.1707H199.777L197.311 56.3727H191.119V60.1707H188.491Z" fill="#ADFF00"/>
<path d="M24.5261 58.9247L0 0.992188H7.67138L24.3789 40.5315C24.7859 41.4947 26.2115 41.2659 26.2967 40.2238L29.5053 0.992188H157V6.89565H36.5866L31.3664 58.6352C31.3148 59.146 30.8848 59.5348 30.3714 59.5348H25.447C25.0454 59.5348 24.6827 59.2945 24.5261 58.9247Z" fill="#ADFF00"/>
<path d="M162 0.992188H204V6.94568H162V0.992188Z" fill="white"/>
<rect x="186" y="0.992188" width="38.6977" height="6" transform="rotate(90 186 0.992188)" fill="white"/>
<rect x="158" y="0.992188" width="1" height="5.95349" fill="#ADFF00"/>
<rect x="160" y="0.992188" width="1" height="5.95349" fill="white"/>
</svg>
